<svg width="100" height="100" viewBox="0 0 24 24" fill="none" xmlns="http://www.w3.org/2000/svg">
  <!-- Background gradient - simulating the div background -->
  <defs>
    <linearGradient id="logoGradient" x1="0%" y1="0%" x2="100%" y2="100%">
      <stop offset="0%" stop-color="#6366F1" />
      <stop offset="100%" stop-color="#A78BFA" />
    </linearGradient>
  </defs>
  
  <!-- Background rect to simulate the container -->
  <rect x="0" y="0" width="24" height="24" rx="4" fill="url(#logoGradient)" />
  
  <!-- Open book base -->
  <path
    d="M2 6C2 4.89543 2.89543 4 4 4H8C9.10457 4 10 4.89543 10 6V18C10 19.1046 9.10457 20 8 20H4C2.89543 20 2 19.1046 2 18V6Z"
    fill="white"
    fill-opacity="0.9"
  />
  <path
    d="M14 6C14 4.89543 14.8954 4 16 4H20C21.1046 4 22 4.89543 22 6V18C22 19.1046 21.1046 20 20 20H16C14.8954 20 14 19.1046 14 18V6Z"
    fill="white"
    fill-opacity="0.9"
  />

  <!-- Brain/spine in the middle -->
  <path
    d="M11 4.5C11 4.5 11.5 6 11.8 8.5C12 10 12 12 12 12"
    stroke="white"
    stroke-width="1.5"
    stroke-linecap="round"
  />
  <path
    d="M13 4.5C13 4.5 12.5 6 12.2 8.5C12 10 12 12 12 12"
    stroke="white"
    stroke-width="1.5"
    stroke-linecap="round"
  />

  <!-- Brain stem transition to spine -->
  <path
    d="M12 12C12 12 11.7 15 11.8 17.5C11.9 19 12 20 12 20"
    stroke="white"
    stroke-width="2"
    stroke-linecap="round"
  />

  <!-- Brain outline shape -->
  <path
    d="M8.5 5.5C8.5 5.5 10 4.5 12 4.5C14 4.5 15.5 5.5 15.5 5.5C15.5 5.5 16 6 16 7.5C16 9 15 10 15 10"
    stroke="white"
    stroke-width="0.75"
    stroke-linecap="round"
  />
  <path
    d="M15.5 5.5C15.5 5.5 16 6 16 7.5C16 9 15 10 15 10"
    stroke="white"
    stroke-width="0.75"
    stroke-linecap="round"
  />
  <path
    d="M8.5 5.5C8.5 5.5 8 6 8 7.5C8 9 9 10 9 10"
    stroke="white"
    stroke-width="0.75"
    stroke-linecap="round"
  />

  <!-- Letter L -->
  <path
    d="M5 8V14H7"
    stroke="#A78BFA"
    stroke-width="2"
    stroke-linecap="round"
    stroke-linejoin="round"
  />

  <!-- Neural connections -->
  <path
    d="M16 8C16.5 8.5 18 10 18 12C18 14 16.5 15.5 16 16"
    stroke="#A78BFA"
    stroke-width="1.5"
    stroke-linecap="round"
  />

  <!-- Additional dendrites -->
  <path
    d="M16 8C16 8 17 7.5 17.5 8.5"
    stroke="#A78BFA"
    stroke-width="1"
    stroke-linecap="round"
  />
  <path
    d="M16 16C16 16 17 16.5 17.5 15.5"
    stroke="#A78BFA"
    stroke-width="1"
    stroke-linecap="round"
  />

  <!-- Secondary neural branches -->
  <path
    d="M17 10C17.5 10.5 18 11 18.2 11.5"
    stroke="#A78BFA"
    stroke-width="0.75"
    stroke-linecap="round"
  />
  <path
    d="M17 14C17.5 13.5 18 13 18.2 12.5"
    stroke="#A78BFA"
    stroke-width="0.75"
    stroke-linecap="round"
  />

  <!-- Neuron cell bodies/synapses -->
  <circle cx="18" cy="8" r="1.2" fill="#A78BFA" />
  <circle cx="18" cy="16" r="1.2" fill="#A78BFA" />
  <circle cx="18.5" cy="11.5" r="0.7" fill="#A78BFA" />
  <circle cx="18.5" cy="12.5" r="0.7" fill="#A78BFA" />
</svg>